<svg
   width="35mm"
   height="20.049234020219877354842273907519mm"
   viewBox="0 0 36.201999 20.737781"
   version="1.1"
   id="svg5"
   sodipodi:docname="pattern.svg"
   inkscape:version="1.1 (c68e22c387, 2021-05-23)"
   xmlns:inkscape="http://www.inkscape.org/namespaces/inkscape"
   xmlns:sodipodi="http://sodipodi.sourceforge.net/DTD/sodipodi-0.dtd"
   xmlns="http://www.w3.org/2000/svg"
   xmlns:svg="http://www.w3.org/2000/svg">
  <defs
     id="defs2" />
  <g
     inkscape:label="Layer 1"
     inkscape:groupmode="layer"
     id="layer1"
     transform="translate(-2176.3529,-683.26832)">
    <path
       id="path903"
       style="fill:#fff;stroke-width:0"
       inkscape:transform-center-x="3.2474252e-05"
       inkscape:transform-center-y="-1.107983e-05"
       d="m 2132.9612,706.65194 v 9.83972 h 5.6808 l 5.6808,-9.83972 z m 24.8404,0 5.6808,9.83972 h 5.6807 v -9.83972 z m -12.4205,0.52916 -5.6808,9.83972 5.6808,9.83973 h 11.3621 l 5.6808,-9.83973 -5.6808,-9.83972 z m -12.4199,10.36889 v 9.83972 h 11.3616 l -5.6808,-9.83972 z m 30.5212,0 -5.6808,9.83972 h 11.3615 v -9.83972 z" />
    <path
       id="path903-5"
       style="fill:#fff;stroke-width:0"
       inkscape:transform-center-x="3.2474252e-05"
       inkscape:transform-center-y="-1.107983e-05"
       d="m 2255.4481,677.44806 -5.6808,9.83969 5.6808,9.8392 h 11.3621 l 5.6808,-9.8392 -5.6808,-9.83969 z m -18.1007,10.36886 -5.6808,9.83919 5.6808,9.83973 h 11.3616 l 5.6808,-9.83973 -5.6808,-9.83919 z m 36.202,0 -5.6808,9.83919 5.6808,9.83973 h 11.3615 l 5.6808,-9.83973 -5.6808,-9.83919 z m -18.1013,10.36836 -5.6808,9.83972 5.6808,9.83972 h 11.3621 l 5.6808,-9.83972 -5.6808,-9.83972 z m -18.1007,10.36889 -5.6808,9.83972 5.6808,9.83919 h 11.3616 l 5.6808,-9.83919 -5.6808,-9.83972 z m 36.202,0 -5.6808,9.83972 5.6808,9.83919 h 11.3615 l 5.6808,-9.83919 -5.6808,-9.83972 z m -18.1013,10.36889 -5.6808,9.83919 5.6808,9.83969 h 11.3621 l 5.6808,-9.83969 -5.6808,-9.83919 z" />
    <path
       id="path903-0"
       style="fill:#fff;stroke-width:0"
       inkscape:transform-center-x="3.2474252e-05"
       inkscape:transform-center-y="-1.107983e-05"
       d="m 2176.3529,683.26832 v 9.83973 h 5.6808 l 5.6808,-9.83973 z m 24.8404,0 5.6808,9.83973 h 5.6808 v -9.83973 z m -12.4205,0.52917 -5.6808,9.83972 5.6808,9.83972 h 11.3621 l 5.6808,-9.83972 -5.6808,-9.83972 z m -12.4199,10.36889 v 9.83972 h 11.3616 l -5.6808,-9.83972 z m 30.5212,0 -5.6808,9.83972 h 11.3616 v -9.83972 z" />
    <path
       id="path903-1"
       style="fill:#fff;stroke-width:0"
       inkscape:transform-center-x="3.2474252e-05"
       inkscape:transform-center-y="-1.107983e-05"
       d="m 2098.3468,686.44333 v 9.83972 h 5.6808 l 5.6808,-9.83972 z m 24.8404,0 5.6808,9.83972 h 5.6808 v -9.83972 z m -12.4204,0.52916 -5.6808,9.83972 5.6808,9.83973 h 11.3621 l 5.6807,-9.83973 -5.6807,-9.83972 z m -12.42,10.36889 v 9.83972 h 11.3616 l -5.6808,-9.83972 z m 30.5212,0 -5.6808,9.83972 h 11.3616 v -9.83972 z" />
    <path
       id="path903-2"
       style="fill:#fff;stroke-width:0"
       inkscape:transform-center-x="3.2474252e-05"
       inkscape:transform-center-y="-1.107983e-05"
       d="m 2098.3468,706.65193 v 9.83973 h 5.6808 l 5.6808,-9.83973 z m 24.8404,0 5.6808,9.83973 h 5.6808 v -9.83973 z m -12.4205,0.52917 -5.6808,9.83972 5.6808,9.83972 h 11.3621 l 5.6808,-9.83972 -5.6808,-9.83972 z m -12.4199,10.36889 v 9.83972 h 11.3616 l -5.6808,-9.83972 z m 30.5212,0 -5.6808,9.83972 h 11.3616 v -9.83972 z" />
  </g>
</svg>
